<svg xmlns="http://www.w3.org/2000/svg" viewBox="0 0 102 102" width="24" height="24">
  <defs>
    <radialGradient id="instagramGradientA" cx="6.601" cy="99.766" r="129.502" gradientUnits="userSpaceOnUse">
      <stop offset=".09" stop-color="#fa8f21"/>
      <stop offset=".78" stop-color="#d82d7e"/>
    </radialGradient>
    <radialGradient id="instagramGradientB" cx="70.652" cy="96.49" r="113.963" gradientUnits="userSpaceOnUse">
      <stop offset=".64" stop-color="#8c3aaa" stop-opacity="0"/>
      <stop offset="1" stop-color="#8c3aaa"/>
    </radialGradient>
  </defs>
  
  <!-- Camada de fundo degradê -->
  <path fill="url(#instagramGradientA)" d="M25.865,101.639A34.341,34.341,0,0,1,14.312,99.5a19.329,19.329,0,0,1-7.154-4.653A19.181,19.181,0,0,1,2.5,87.694,34.341,34.341,0,0,1,.364,76.142C.061,69.584,0,67.617,0,51s.067-18.577.361-25.14A34.534,34.534,0,0,1,2.5,14.312,19.4,19.4,0,0,1,7.154,7.154,19.206,19.206,0,0,1,14.309,2.5,34.341,34.341,0,0,1,25.862.361C32.422.061,34.392,0,51,0s18.577.067,25.14.361A34.534,34.534,0,0,1,87.691,2.5a19.254,19.254,0,0,1,7.154,4.653A19.267,19.267,0,0,1,99.5,14.309a34.341,34.341,0,0,1,2.14,11.553c.3,6.563.361,8.528.361,25.14s-.061,18.577-.361,25.14A34.5,34.5,0,0,1,99.5,87.694,20.6,20.6,0,0,1,87.691,99.5a34.342,34.342,0,0,1-11.553,2.14c-6.557.3-8.528.361-25.14.361s-18.577-.058-25.134-.361"/>
  <path fill="url(#instagramGradientB)" d="M25.865,101.639A34.341,34.341,0,0,1,14.312,99.5a19.329,19.329,0,0,1-7.154-4.653A19.181,19.181,0,0,1,2.5,87.694,34.341,34.341,0,0,1,.364,76.142C.061,69.584,0,67.617,0,51s.067-18.577.361-25.14A34.534,34.534,0,0,1,2.5,14.312,19.4,19.4,0,0,1,7.154,7.154,19.206,19.206,0,0,1,14.309,2.5,34.341,34.341,0,0,1,25.862.361C32.422.061,34.392,0,51,0s18.577.067,25.14.361A34.534,34.534,0,0,1,87.691,2.5a19.254,19.254,0,0,1,7.154,4.653A19.267,19.267,0,0,1,99.5,14.309a34.341,34.341,0,0,1,2.14,11.553c.3,6.563.361,8.528.361,25.14s-.061,18.577-.361,25.14A34.5,34.5,0,0,1,99.5,87.694,20.6,20.6,0,0,1,87.691,99.5a34.342,34.342,0,0,1-11.553,2.14c-6.557.3-8.528.361-25.14.361s-18.577-.058-25.134-.361"/>

  <!-- Retângulo arredondado branco interno (ícone central) -->
  <path fill="#fff" d="M51 77a26 26 0 1 1 26-26 26 26 0 0 1-26 26zm0-44a18 18 0 1 0 18 18 18 18 0 0 0-18-18zm28-5a6 6 0 1 0 6 6 6 6 0 0 0-6-6z"/>
</svg>