<svg xmlns="http://www.w3.org/2000/svg" viewBox="0 0 61.94 61.94" id="whatsapp">
  <defs>
    <radialGradient id="a" cx="30.59" cy="-26.8" r="60.6" gradientUnits="userSpaceOnUse">
      <stop offset="0" stop-color="#b1ffcf"></stop>
      <stop offset="1" stop-color="#8fea7c"></stop>
    </radialGradient>
    <linearGradient id="b" x1="268.77" x2="268.77" y1="-651.72" y2="-689.04" gradientTransform="translate(-236.8 700.35)" gradientUnits="userSpaceOnUse">
      <stop offset="0" stop-color="#cdffcf"></stop>
      <stop offset=".14" stop-color="#d9ffdb"></stop>
      <stop offset=".43" stop-color="#eeffef"></stop>
      <stop offset=".72" stop-color="#fbfffb"></stop>
      <stop offset="1" stop-color="#fff"></stop>
    </linearGradient>
  </defs>
  <g>
    <rect width="61.94" height="61.94" fill="url(#a)" rx="16.96"></rect>
    <path fill="#fff" d="M48.31,21a18.26,18.26,0,0,0-13.23-9.41A17.9,17.9,0,0,0,24.5,12.9a18.42,18.42,0,0,0-8.74,7.94,18.6,18.6,0,0,0,0,18.21.8.8,0,0,1,.07.69q-.67,2.34-1.33,4.7l-1.17,4.19.36-.08c2.92-.75,5.84-1.49,8.76-2.25a1,1,0,0,1,.83.09A18.6,18.6,0,0,0,43.9,44.23a18.22,18.22,0,0,0,6.66-13.12A17.6,17.6,0,0,0,48.31,21ZM36.55,44.71A15.18,15.18,0,0,1,23.8,43.05a1.08,1.08,0,0,0-.92-.13l-4.43,1.15c-.61.15-.61.15-.43-.47.4-1.44.81-2.87,1.22-4.3a.84.84,0,0,0-.11-.77,15.46,15.46,0,0,1,2.18-19.75,15.22,15.22,0,0,1,8.76-4.19c.64-.08,1.28-.1,1.68-.13a15.47,15.47,0,0,1,4.8,30.25Z"></path>
    <path fill="#fff" d="M40.91,33.88c-1.22-.53-2.43-1.1-3.63-1.67a.81.81,0,0,0-1.16.3c-.41.58-.87,1.13-1.3,1.69-.2.25-.4.42-.76.28a12.54,12.54,0,0,1-6.58-5.55A.72.72,0,0,1,27.6,28c.39-.44.76-.9,1.16-1.33a1,1,0,0,0,.2-1.14c-.54-1.22-1.05-2.45-1.58-3.68-.08-.19-.17-.43-.38-.47a2.72,2.72,0,0,0-2.44.18,4.69,4.69,0,0,0-2,3.63,7,7,0,0,0,.68,3.34,19.31,19.31,0,0,0,12,10.1c2.62.78,5.64-.37,6.13-3.65A.86.86,0,0,0,40.91,33.88Z"></path>
    <path fill="url(#b)" d="M48.31,21a18.26,18.26,0,0,0-13.23-9.41A17.9,17.9,0,0,0,24.5,12.9a18.42,18.42,0,0,0-8.74,7.94,18.6,18.6,0,0,0,0,18.21.8.8,0,0,1,.07.69q-.67,2.34-1.33,4.7l-1.17,4.19.36-.08c2.92-.75,5.84-1.49,8.76-2.25a1,1,0,0,1,.83.09A18.6,18.6,0,0,0,43.9,44.23a18.22,18.22,0,0,0,6.66-13.12A17.6,17.6,0,0,0,48.31,21ZM36.55,44.71A15.18,15.18,0,0,1,23.8,43.05a1.08,1.08,0,0,0-.92-.13l-4.43,1.15c-.61.15-.61.15-.43-.47.4-1.44.81-2.87,1.22-4.3a.84.84,0,0,0-.11-.77,15.46,15.46,0,0,1,2.18-19.75,15.22,15.22,0,0,1,8.76-4.19c.64-.08,1.28-.1,1.68-.13a15.47,15.47,0,0,1,4.8,30.25Z"></path>
    <path fill="url(#b)" d="M40.91,33.88c-1.22-.53-2.43-1.1-3.63-1.67a.81.81,0,0,0-1.16.3c-.41.58-.87,1.13-1.3,1.69-.2.25-.4.42-.76.28a12.54,12.54,0,0,1-6.58-5.55A.72.72,0,0,1,27.6,28c.39-.44.76-.9,1.16-1.33a1,1,0,0,0,.2-1.14c-.54-1.22-1.05-2.45-1.58-3.68-.08-.19-.17-.43-.38-.47a2.72,2.72,0,0,0-2.44.18,4.69,4.69,0,0,0-2,3.63,7,7,0,0,0,.68,3.34,19.31,19.31,0,0,0,12,10.1c2.62.78,5.64-.37,6.13-3.65A.86.86,0,0,0,40.91,33.88Z"></path>
  </g>
</svg>
